<svg xmlns="http://www.w3.org/2000/svg" width="18" height="18" viewBox="0 0 18 18">
    <g id="ic_kakao" transform="translate(-73 -336)">
        <path id="사각형_1781" fill="#fff" d="M0 0H18V18H0z" data-name="사각형 1781" opacity="0.64" transform="translate(73 336)"/>
        <path id="패스_1092" fill="#381e1f" d="M169.154 124.379c-4.809 0-8.708 3.082-8.708 6.884a6.727 6.727 0 0 0 4.131 5.857c-.182.68-.659 2.463-.755 2.845-.118.474.174.467.365.34.15-.1 2.386-1.62 3.351-2.276a10.992 10.992 0 0 0 1.616.119c4.809 0 8.708-3.082 8.708-6.884s-3.9-6.884-8.708-6.884" data-name="패스 1092" transform="translate(-87.146 212.621)"/>
    </g>
</svg>
