<svg xmlns="http://www.w3.org/2000/svg" width="158" height="24" viewBox="0 0 158 24">
    <path id="ic_BI_02_g" fill="#8296a1" d="M-3907.773-1832.169c3.574-.3 4.721-4.338 4.721-8.842v-14.568h4.9v14.568c0 6.147-4.455 8.926-9.618 9.01zm-10.545-8.842v-14.568h4.9v14.568c0 4.462 1.146 8.546 4.719 8.842v.168c-5.161-.084-9.619-2.822-9.619-9.01zm40.285 8.715a5.353 5.353 0 0 0 5.34-5.39 5.32 5.32 0 0 0-2.428-4.462v-.17h6.707v9.011c-2.562.884-7.458 1.18-9.619 1.18zm46.99-.042c3.837-.38 6.881-5.517 6.881-11.746 0-6.485-3.264-11.579-7.324-11.579s-7.324 5.094-7.324 11.579c0 6.23 3.044 11.366 6.884 11.746v.169a12.175 12.175 0 0 1-12.044-11.915 12.2 12.2 0 0 1 12.484-11.916c6.884 0 12.486 5.347 12.486 11.917a12.176 12.176 0 0 1-12.043 11.915zm-59.917-11.746c0-6.569 5.6-11.917 13.854-11.917h.573a57.452 57.452 0 0 1 7.941.884v4.337h-.177a8.938 8.938 0 0 0-7.764-4.377c-5.207 0-9.266 4.588-9.266 11.073 0 6.272 3.044 11.409 6.882 11.746v.169a12.175 12.175 0 0 1-12.044-11.915zm-43.328 11.662l-8.516-11.283a9.482 9.482 0 0 0 2.69-.378c2.425-.717 4.369-2.4 4.369-5.516 0-4.295-3.662-5.768-7.369-5.768h-.926v22.946h-4.9v-23.283h5.781c3.8 0 6.8.169 8.87.968a5.161 5.161 0 0 1 3.661 5.137 5.16 5.16 0 0 1-3.661 5.137 12.175 12.175 0 0 1-3.133.715l8.6 11.326zm-42.712 0v-23.283h5.78c3.62 0 6.443.169 8.426 1.052a5.672 5.672 0 0 1 3.486 5.643 5.672 5.672 0 0 1-3.486 5.642c-1.983.883-4.806 1.051-8.426 1.051v-.168c3.486 0 7.016-1.81 7.016-6.525s-3.487-6.358-6.971-6.358h-.927v22.946zm120.012-.3V-1856h4.9v23.283z" transform="translate(3977 1856.001)"/>
</svg>
